<svg width="245" height="40" viewBox="0 0 245 40" fill="none" xmlns="http://www.w3.org/2000/svg">
<path fill-rule="evenodd" clip-rule="evenodd" d="M188.819 14.3451C188.819 18.7127 188.819 22.9591 188.819 27.3268C188.819 29.0253 189.535 29.7532 191.086 29.7532C192.517 29.7532 193.233 29.0253 193.233 27.3268C193.233 23.4444 193.233 19.562 193.233 15.5583C193.233 13.8598 192.875 12.6465 191.444 11.7973C190.966 11.5546 190.37 11.1906 190.609 10.4627C190.847 9.61344 191.563 9.97741 191.921 9.97741C194.546 9.61344 197.29 9.37079 199.915 9.12814C200.869 9.00681 201.227 9.37079 201.227 10.4627C201.108 16.0436 201.227 21.6245 201.108 27.3268C201.108 28.6613 201.346 29.5106 202.778 29.7532C203.375 29.8746 203.613 30.1172 203.613 30.8452C203.613 31.5731 203.017 31.4518 202.659 31.4518C194.904 31.4518 187.149 31.4518 179.513 31.4518C179.155 31.4518 178.558 31.6944 178.439 30.8452C178.32 30.1172 178.678 29.7532 179.274 29.6319C180.706 29.5106 180.945 28.54 180.945 27.2054C180.945 20.0473 180.945 12.8892 180.945 5.73106C180.945 4.15385 180.467 3.18326 179.036 2.57663C178.558 2.33399 177.962 2.09134 178.081 1.36339C178.2 0.514124 178.797 0.756772 179.274 0.756772C182.018 0.514124 184.762 0.271475 187.626 0.0288272C188.461 -0.092497 188.938 0.150151 188.938 1.12074C188.819 5.60974 188.938 9.97741 188.819 14.3451Z" fill="#FE0404"/>
<path fill-rule="evenodd" clip-rule="evenodd" d="M144.247 28.5951C143.048 29.3138 142.089 29.9128 141.009 30.5118C140.17 30.991 139.33 31.2305 138.49 31.4701C133.693 32.5483 130.934 30.392 130.934 25.4804C130.934 22.0064 130.814 18.5323 130.934 15.1781C130.934 13.7406 130.575 12.7822 129.255 12.0634C128.776 11.8239 128.056 11.5843 128.296 10.7457C128.536 10.0269 129.135 10.3863 129.615 10.2665C132.014 10.0269 134.413 9.66756 136.931 9.42797C138.85 9.18838 138.97 9.30817 138.97 11.2249C138.97 15.5375 138.97 19.7303 138.97 24.0429C138.97 27.0377 139.93 27.7565 142.808 27.1575C143.768 26.9179 144.128 26.5586 144.128 25.6002C144.008 22.1262 144.008 18.6521 144.128 15.0583C144.128 13.7406 143.768 12.6624 142.568 12.0634C142.089 11.8239 141.369 11.5843 141.489 10.7457C141.729 9.90715 142.568 10.2665 143.048 10.1467C145.567 9.78735 147.966 9.66756 150.484 9.30817C151.803 9.18838 152.163 9.66756 152.163 10.8655C152.163 15.8969 152.163 20.9282 152.163 25.9596C152.163 27.2773 152.403 28.3555 153.842 28.7149C154.442 28.8347 154.562 29.194 154.562 29.6732C154.562 30.392 153.962 30.2722 153.603 30.2722C151.204 30.6316 148.685 30.991 146.286 31.3503C144.967 31.5899 144.367 31.2306 144.607 29.793C144.247 29.5534 144.247 29.0742 144.247 28.5951Z" fill="#FE0404"/>
<path fill-rule="evenodd" clip-rule="evenodd" d="M24.284 27.7884C24.0437 31.4172 24.0437 31.4172 20.4399 31.4172C14.0732 31.4172 7.7065 31.4172 1.33979 31.4172C0.859283 31.4172 0.138523 31.7801 0.0183966 30.8124C-0.10173 29.9657 0.378776 29.7238 1.09954 29.6028C2.90143 29.3609 3.02156 28.0303 3.02156 26.6998C3.02156 24.0387 3.02156 21.3776 3.02156 18.7164C3.02156 14.9667 3.02156 11.3379 3.02156 7.70909C3.02156 6.13661 2.78131 4.6851 0.739156 4.56414C0.0183964 4.56414 0.0183966 4.0803 0.0183966 3.4755C0.0183966 2.74974 0.619029 2.8707 0.979409 2.8707C5.30397 2.8707 9.74865 2.8707 14.0732 2.8707C14.5537 2.8707 15.1543 2.62878 15.1543 3.4755C15.2745 4.32222 14.6738 4.44318 14.1933 4.44318C12.5116 4.56414 12.0311 5.53182 12.0311 7.10429C12.0311 13.5152 12.0311 20.047 12.0311 26.4579C12.0311 28.6351 12.5116 28.998 14.6738 29.119C17.1965 29.2399 19.1185 28.5142 20.3198 26.095C21.0405 24.5225 22.0016 22.95 22.7223 21.2566C23.0827 20.4099 23.5632 20.2889 24.284 20.4099C25.1248 20.5308 24.6443 21.2566 24.6443 21.7404C24.5242 22.8291 24.5242 23.7968 24.5242 25.1273L24.284 27.7884Z" fill="#FE0404"/>
<path fill-rule="evenodd" clip-rule="evenodd" d="M222.954 27.6407C220.191 31.2382 214.785 32.6773 209.979 31.1183C205.895 29.7992 203.612 26.2017 203.372 21.2851C203.012 12.5312 209.499 9.1735 216.707 9.29341C218.269 9.29341 219.71 9.53325 221.152 10.1328C222.834 10.9723 223.554 12.4113 223.194 14.0901C222.834 15.5291 221.512 16.6084 219.95 16.4884C218.148 16.3685 217.308 15.4092 216.827 13.4905C216.587 12.6511 217.067 11.2121 215.506 11.0922C214.064 10.9723 212.742 11.5718 212.262 12.8909C210.7 16.9681 210.58 21.1652 212.742 25.1225C213.824 27.1611 215.986 27.5208 218.028 27.4009C219.83 27.281 221.392 26.6814 222.954 26.0818C223.074 26.4416 223.074 27.4009 222.954 27.6407Z" fill="#FE0404"/>
<path fill-rule="evenodd" clip-rule="evenodd" d="M197.279 5.02975e-09C199.653 0.12112 201.314 1.69568 201.314 4.11807C201.314 6.41934 199.297 8.11502 196.923 7.9939C194.55 7.87278 192.77 6.05598 192.889 3.87583C192.889 1.57456 194.787 5.02975e-09 197.279 5.02975e-09Z" fill="#FE0404"/>
<path fill-rule="evenodd" clip-rule="evenodd" d="M147.409 3.64243C147.409 4.82086 146.924 5.7636 145.711 5.99928C143.285 6.58849 140.859 6.94202 138.555 7.41339C138.312 7.53123 137.948 7.53123 137.827 7.17771C137.584 6.82418 137.706 6.47065 138.07 6.23497C139.768 4.70301 141.344 3.05322 143.042 1.52126C143.891 0.696365 144.983 0.578523 146.075 1.04989C146.924 1.63911 147.409 2.58185 147.409 3.64243Z" fill="#FE0404"/>
<path fill-rule="evenodd" clip-rule="evenodd" d="M83.0757 29.65C81.9958 29.5294 81.5159 28.6849 81.0359 27.9611C79.1162 25.0658 77.5563 21.9293 76.1165 18.7928C75.6366 17.8277 75.5166 17.3452 76.8364 16.9833C78.5162 16.3801 79.7161 15.1737 80.316 13.3642C81.7559 8.78002 79.7161 5.04031 75.1566 3.83395C74.3167 3.59268 73.3568 3.35141 72.5169 3.35141C66.5176 2.50696 60.5183 2.9895 54.639 2.86887C54.159 2.86887 53.7991 2.74823 53.6791 3.47205C53.6791 4.07523 53.9191 4.43713 54.519 4.43713C56.4388 4.55777 56.5588 5.88476 56.5588 7.33239C56.5588 10.4689 56.5588 13.7261 56.5588 16.8626C56.5588 20.2404 56.5588 23.4976 56.5588 26.8754C56.5588 28.323 56.1988 29.4087 54.519 29.5294C53.7991 29.5294 53.5591 30.0119 53.6791 30.6151C53.6791 31.3389 54.279 31.2183 54.639 31.2183C58.9585 31.2183 63.158 31.2183 67.4775 31.2183C67.9575 31.2183 68.4374 31.3389 68.5574 30.4945C68.5574 29.7706 68.1974 29.5294 67.7175 29.5294C66.0377 29.4087 65.7977 28.2024 65.7977 26.7547C65.7977 24.7039 65.7977 22.7738 65.7977 20.723C65.7977 20.2404 65.3178 19.396 66.3976 19.1547C67.3575 19.0341 67.5975 19.6372 67.8375 20.361C69.1573 23.7388 70.5972 26.996 72.5169 30.1325C72.8769 30.7357 73.2368 31.2183 74.0768 31.0976C77.0764 31.0976 79.9561 31.0976 82.9557 31.0976C83.3157 31.0976 83.7956 31.2183 83.7956 30.6151C83.6756 30.2532 83.7956 29.7706 83.0757 29.65ZM71.1971 14.2086C70.9571 15.6563 70.3572 16.8626 68.7974 17.2245C66.3976 17.9483 65.7977 17.4658 65.7977 14.9324C65.7977 13.6055 65.7977 12.3991 65.7977 11.0721C65.7977 9.50383 65.7977 7.81493 65.7977 6.12603C65.7977 5.28158 66.1577 5.04031 66.8776 4.79904C69.5173 4.43713 70.8371 5.40222 71.3171 8.0562C71.557 10.3483 71.557 12.2785 71.1971 14.2086Z" fill="#FE0404"/>
<path fill-rule="evenodd" clip-rule="evenodd" d="M128.172 15.2085C127.21 11.7108 124.444 9.41921 121.078 9.2986C118.312 9.17799 116.027 10.3841 113.863 12.3139C113.863 11.8314 113.743 11.4696 113.863 11.2284C113.983 9.2986 113.863 9.17799 111.939 9.41921C109.534 9.66043 107.129 9.90165 104.845 10.2635C104.364 10.2635 103.762 10.0223 103.522 10.6253C103.281 11.349 103.883 11.7108 104.364 12.0726C105.686 12.7963 106.167 14.0024 106.047 15.5703C105.927 22.4451 106.047 29.3199 106.047 36.074C106.047 37.2801 105.807 38.1244 104.484 38.245C103.883 38.3656 103.402 38.6068 103.522 39.3305C103.642 40.2954 104.364 39.9335 104.845 39.9335C108.332 39.9335 111.819 39.9335 115.426 39.9335C115.907 39.9335 116.629 40.2954 116.749 39.3305C116.869 38.3656 116.268 38.3656 115.667 38.245C114.464 38.1244 114.103 37.4007 114.224 36.3152C114.224 35.7122 114.224 35.2298 114.224 34.6267C114.224 33.6618 113.863 32.4557 114.224 31.9733C114.825 31.2496 116.027 31.8527 116.989 31.8527C122.761 31.8527 126.729 29.3199 128.172 24.4955C128.894 21.3596 129.014 18.2237 128.172 15.2085ZM119.875 27.5107C119.274 29.6817 117.23 30.526 115.306 29.5611C114.464 29.1993 113.983 28.5962 113.983 27.5107C114.103 25.4603 113.983 23.2894 113.983 21.239C113.983 19.1886 114.103 17.1383 113.983 15.0879C113.983 14.123 114.344 13.7612 115.186 13.6406C117.711 13.1581 119.394 14.0024 119.995 16.5352C120.837 20.2741 120.837 23.8924 119.875 27.5107Z" fill="#FE0404"/>
<path fill-rule="evenodd" clip-rule="evenodd" d="M178.408 17.0126C177.684 11.5582 174.062 8.52791 169.111 9.25517C167.059 9.49759 165.368 10.5885 163.799 12.043C163.799 8.4067 163.799 5.13404 163.799 1.74016C163.799 0.406848 163.436 0.164428 162.229 0.285638C159.573 0.528058 156.796 0.770478 154.139 1.0129C153.777 1.0129 153.173 0.891688 153.053 1.61895C152.932 2.225 153.294 2.58863 153.777 2.83105C155.467 3.31589 155.709 4.52799 155.709 6.22493C155.709 13.4975 155.709 20.6489 155.709 27.9215C155.709 29.0124 156.071 29.6184 157.037 30.1033C160.418 31.9214 164.161 32.1638 167.904 31.9214C173.579 31.5578 177.201 28.2851 178.288 22.5883C178.65 20.5277 178.65 18.7096 178.408 17.0126ZM169.715 27.1942C169.232 29.4972 167.3 30.3457 165.248 29.6184C164.161 29.2548 163.557 28.6488 163.678 27.3155C163.799 25.3761 163.678 23.3155 163.678 21.255C163.678 19.1944 163.678 17.0126 163.678 14.952C163.678 13.9824 164.04 13.7399 164.885 13.4975C167.542 12.8915 169.232 13.8612 169.836 16.4066C170.681 20.0429 170.56 23.6792 169.715 27.1942Z" fill="#FE0404"/>
<path fill-rule="evenodd" clip-rule="evenodd" d="M46.7518 29.1218C46.7518 28.6381 46.2732 28.6381 45.9142 28.6381C44.3587 28.5171 43.9997 27.5497 43.9997 26.0985C43.9997 22.5916 43.9997 19.0846 43.9997 15.4567C43.9997 11.9497 42.5638 10.1357 39.0938 9.41016C35.7434 8.80551 32.393 8.92644 29.1623 9.77295C27.9657 10.1357 27.0084 10.6195 26.1708 11.5869C24.9743 13.0381 25.2136 15.2148 26.6495 16.0613C28.8033 17.3916 31.6751 16.1823 32.1537 13.6427C32.2733 13.159 32.2733 12.6753 32.393 12.3125C32.5126 11.1032 33.2306 10.8613 34.1878 11.1032C35.1451 11.345 35.6237 11.9497 35.7434 12.9171C35.9827 14.1264 35.863 15.4567 35.9827 16.7869C36.1024 18.2381 35.6237 18.8427 34.1878 19.0846C32.034 19.4474 29.8802 20.052 27.846 21.1404C26.1708 21.9869 24.9743 23.1962 24.6153 25.1311C24.4956 25.4939 24.4956 26.945 24.6153 27.3078C24.9743 29.6055 26.4101 30.9357 28.564 31.4195C31.0768 31.9032 33.4699 31.7822 35.5041 29.8474C35.7434 29.6055 35.9827 29.0008 36.581 29.7264C38.7348 32.145 43.6407 32.3869 46.1535 30.452C46.7518 29.9683 46.7518 29.6055 46.7518 29.1218ZM35.0254 28.1543C34.1879 28.3962 33.3503 28.1543 32.9913 27.3078C32.2733 25.6148 32.1537 23.8009 32.9913 22.1078C33.4699 21.0195 34.6665 21.0195 35.6237 21.1404C36.1024 21.1404 35.9827 21.6241 35.9827 21.9869C35.9827 22.8334 35.9827 23.6799 35.9827 24.4055C35.9827 25.1311 35.9827 25.8567 35.9827 26.5822C36.1024 27.3078 35.863 27.9125 35.0254 28.1543Z" fill="#FE0404"/>
<path fill-rule="evenodd" clip-rule="evenodd" d="M245 29.1899C245 28.7056 244.524 28.7056 244.166 28.5846C242.618 28.4635 242.26 27.495 242.26 26.0422C242.26 22.4101 242.26 18.8992 242.26 15.2672C242.26 11.9984 240.831 10.1824 237.734 9.45599C234.875 8.85066 232.016 8.97172 229.157 9.33492C227.847 9.57706 226.537 9.94026 225.345 10.7877C224.035 11.7563 223.559 13.2091 223.916 14.5408C224.392 15.9936 225.465 16.4779 226.894 16.4779C228.8 16.4779 229.872 15.8725 230.348 14.2987C230.587 13.5723 230.706 12.8459 230.706 11.9984C230.825 11.1509 231.301 10.9088 232.016 10.9088C233.207 10.9088 233.803 11.6352 234.041 12.7248C234.398 14.2987 234.16 15.7515 234.279 17.3253C234.398 18.2939 233.922 18.536 233.088 18.7781C230.944 19.2624 228.681 19.7467 226.656 20.8363C224.75 21.8048 223.201 23.0155 223.082 25.4368C223.082 26.1632 222.963 26.8896 223.082 27.616C223.559 29.6742 224.869 30.8848 226.894 31.3691C229.515 31.9744 231.897 31.7323 234.041 29.9163C234.279 29.6742 234.398 28.9478 234.994 29.6742C237.257 32.0955 242.022 32.4587 244.524 30.4006C245 30.1584 245 29.6742 245 29.1899ZM233.326 28.2214C232.493 28.3424 231.659 28.1003 231.301 27.2528C230.587 25.5579 230.587 23.863 231.301 22.168C231.778 21.0784 232.85 21.0784 233.922 21.0784C234.518 21.0784 234.398 21.6838 234.398 22.047C234.398 22.8944 234.398 23.6208 234.398 24.4683C234.398 25.0736 234.398 25.8 234.398 26.4054C234.518 27.3739 234.279 28.1003 233.326 28.2214Z" fill="#FE0404"/>
<path fill-rule="evenodd" clip-rule="evenodd" d="M92.0751 19.507C95.6821 19.6286 99.1688 19.507 102.776 19.507C103.738 19.507 103.978 19.2638 103.978 18.2909C103.738 12.4534 100.491 9.29144 94.7202 9.04821C90.0312 8.80498 85.8231 11.3589 84.0196 15.6154C82.0959 20.1151 83.0577 26.1958 86.1838 29.1145C90.2717 33.0062 99.4093 32.5197 102.896 28.02C103.377 27.4119 103.377 26.8039 103.136 26.0742C101.573 26.9255 99.8902 27.4119 98.207 27.5336C93.8786 27.7768 91.5942 26.3174 90.9931 21.9393C90.9931 21.5745 90.8728 21.3312 90.8728 20.9664C90.5121 19.9935 90.7526 19.507 92.0751 19.507ZM90.8728 15.1289C90.9931 14.156 91.2335 13.1831 91.7144 12.3318C92.1954 11.4805 92.9168 10.8724 93.8786 10.994C94.9607 11.1157 95.4416 11.7237 95.8023 12.6966C96.2833 14.0344 96.163 15.3721 96.2833 16.7099C96.2833 17.318 95.9226 17.4396 95.4416 17.4396C94.7202 17.4396 93.8786 17.5612 93.1572 17.5612C90.6324 17.6828 90.6324 17.6828 90.8728 15.1289Z" fill="#FE0404"/>
</svg>
