<svg class="logo-lr-svg" xmlns="http://www.w3.org/2000/svg" width="200" height="35.375" viewBox="0 0 212.5 35.375" xml:space="preserve"><path fill="#FFF" d="M201.631 24.948c-1.019 0-1.93-.492-1.93-2.905 0-2.455.594-3.192 2.139-3.296l1.052-.071v5.575c-.247.456-.631.697-1.261.697m-3.231 2.91c2.424 0 3.788-1.086 4.734-2.203h.139c.49 1.469 1.896 2.203 4.064 2.203 2.492 0 3.962-.877 4.699-1.437v-1.054c-.348 0-1.157-.104-1.613-.347-.663-.353-.769-.842-.769-2.35v-9.11c0-3.684-2.946-4.98-7.433-4.98-5.961 0-8.451 1.576-8.451 3.856 0 1.647 1.021 2.418 2.665 2.418 2.001 0 3.018-.806 3.188-3.506.076-.984.357-1.192 1.161-1.192 1.437 0 2.105.597 2.105 3.788v2.768l-2.771.7c-4.839 1.193-7.01 2.631-7.01 5.818.002 2.911 1.961 4.628 5.292 4.628m-13.212 0c4.101 0 6.73-2.103 7.711-3.507v-1.224c-1.401.665-2.733 1.224-4.804 1.224-3.996 0-5.396-2.765-5.396-7.779 0-5.608 1.96-6.379 3.435-6.379 1.124 0 1.298.213 1.399 1.399.145 1.648.774 3.192 2.877 3.192 1.647 0 2.7-1.122 2.7-2.735 0-2.346-2.382-3.469-5.959-3.469-5.261 0-11.114 2.42-11.114 9.639 0 5.961 3.298 9.639 9.151 9.639M170.535 7.425c2.031 0 3.607-1.335 3.607-3.332 0-1.996-1.576-3.328-3.607-3.328-2.034 0-3.613 1.332-3.613 3.328 0 1.997 1.579 3.332 3.613 3.332m-5.362 20.013h11.042v-1.121l-.664-.176c-1.37-.353-1.475-.453-1.475-2.104V13.276c0-1.611.035-2.73.139-4.38l-.455-.316-8.765.875v.805l1.123.841c1.051.806 1.193.947 1.193 2.493v10.442c0 1.618-.073 1.719-1.473 2.104l-.666.176v1.122zm-10.796 0h11.251v-1.121l-.667-.176c-1.51-.385-1.577-.453-1.577-2.104V5.317c0-2.345.105-4.101.105-4.101l-.456-.312-8.83.768v.948l1.188.595c1.159.598 1.229.806 1.229 2.667v18.155c0 1.618-.069 1.719-1.579 2.104l-.664.176v1.121zm-10.239-1.155c-1.051 0-1.961-.563-2.417-1.193V12.613c.424-.142 1.157-.425 2.244-.425 2.279 0 3.54 1.507 3.54 6.521 0 6.555-1.228 7.574-3.367 7.574m-.421 1.575c6.138 0 10.694-3.013 10.694-10.655 0-6.24-3.543-8.624-6.837-8.624-2.595 0-4.449 1.297-5.783 2.522h-.175s.104-1.542.104-3.642V5.317c0-2.345.104-4.101.104-4.101l-.454-.312-8.729.768v.948l1.193.595c1.082.563 1.119.806 1.119 2.667V25.51c2.145 1.51 4.873 2.348 8.764 2.348M119.534 7.249l6.272-1.228c1.263-.244 1.786-1.229 1.786-2.138 0-1.263-.875-2.453-2.136-2.453-.771 0-1.474.348-2.139 1.015l-4.1 4.101.317.703zm-1.546 20.609c2.878 0 4.944-1.329 6.835-2.769h.179l-.073 2.455.457.313 8.204-1.192v-.979l-.88-.352c-1.155-.457-1.19-.629-1.19-2.455V8.896l-.455-.316-8.622.875v.805l1.12.74c1.089.699 1.192.945 1.192 2.488v10.2c-.595.177-1.437.455-2.493.455-1.327 0-2.063-.594-2.063-2.697V8.896l-.458-.316-8.623.875v.805l1.123.74c1.155.772 1.193.945 1.193 2.488v9.674c.001 3.121 1.823 4.696 4.554 4.696m-16.933-1.575c-1.048 0-1.959-.563-2.415-1.193V12.613c.421-.142 1.157-.425 2.246-.425 2.276 0 3.538 1.507 3.538 6.521 0 6.555-1.228 7.574-3.369 7.574m-11.321 8.483h11.188v-1.12l-.916-.211c-1.294-.283-1.366-.424-1.366-2.07v-1.718c0-1.264-.07-2.068-.07-2.068.705.179 1.822.28 2.485.28 5.787 0 10.272-3.013 10.272-10.655 0-6.24-3.534-8.624-6.833-8.624-2.592 0-4.417 1.259-5.924 2.627h-.176l.072-2.311-.455-.316-8.448.875v.805l1.123.841c1.051.806 1.191.947 1.191 2.493v17.77c0 1.608-.071 1.718-1.473 2.104l-.669.177v1.121zm-8.62-24.68c1.788 0 2.313 1.299 2.313 5.54l-4.908.317c.106-4.418 1.194-5.857 2.595-5.857m.351 17.772c3.68 0 6.448-1.854 7.853-3.539v-1.223c-1.367.696-3.049 1.255-4.98 1.255-3.61 0-5.642-1.291-5.819-6.975h11.426c-.174-6.342-3.364-8.797-8.48-8.797-4.664 0-9.501 3.294-9.501 9.639 0 6.134 3.192 9.64 9.501 9.64M58.432 15.664c-.839 0-1.193-.071-1.469-.107V5.108c.241-.106 1.017-.246 1.857-.246 2.522 0 3.12 1.473 3.12 5.397 0 4.244-1.123 5.405-3.508 5.405M46.691 27.438H59.38v-1.154l-.981-.244c-1.12-.283-1.437-.421-1.437-2.81v-6.097c.276.034 1.017.071 1.469.071 1.019 3.012 3.297 7.923 4.91 10.234h9.112v-1.154l-.491-.177c-.699-.245-.908-.245-1.297-.809-1.857-2.66-3.993-6.657-5.224-9.672v-.139c3.054-.915 4.313-2.563 4.313-5.784 0-4.35-3.051-6.556-10.76-6.556H46.691V4.3l.98.248c1.192.28 1.543.425 1.543 2.808v15.875c0 2.389-.351 2.526-1.543 2.81l-.98.244v1.153zm-16.616-2.49c-1.016 0-1.926-.492-1.926-2.905 0-2.455.594-3.192 2.139-3.296l1.048-.071v5.575c-.242.456-.628.697-1.261.697m-3.224 2.91c2.418 0 3.785-1.086 4.734-2.203h.139c.491 1.469 1.891 2.203 4.066 2.203 2.487 0 3.965-.877 4.699-1.437v-1.054c-.354 0-1.159-.104-1.617-.347-.662-.353-.769-.842-.769-2.35v-9.11c0-3.684-2.946-4.98-7.43-4.98-5.961 0-8.448 1.576-8.448 3.856 0 1.647 1.017 2.418 2.664 2.418 2 0 3.016-.806 3.187-3.506.073-.984.354-1.192 1.158-1.192 1.439 0 2.101.597 2.101 3.788v2.768l-2.769.7c-4.838 1.193-7.012 2.631-7.012 5.818.001 2.911 1.969 4.628 5.297 4.628m-26.498-.42h20.542l.63-9.146H20.26c-1.117 2.629-1.788 3.855-2.63 5.22-1.083 1.787-1.682 2.21-4.308 2.21-2.525 0-2.665-.423-2.665-2.979V7.355c0-2.383.278-2.527 1.541-2.808l1.195-.247V3.147H.353V4.3l.98.248c1.19.28 1.542.425 1.542 2.808v15.875c0 2.389-.352 2.526-1.542 2.81l-.98.244v1.153z"/></svg>