<svg width="91" height="25" viewBox="0 0 91 25" fill="none" xmlns="http://www.w3.org/2000/svg">
<path d="M19.2727 0.727272V24H16.5455L3.86364 5.72727H3.63636V24H0.818182V0.727272H3.54545L16.2727 19.0455H16.5V0.727272H19.2727ZM24.9119 24V0.727272H38.9574V3.22727H27.7301V11.0909H38.2301V13.5909H27.7301V21.5H39.1392V24H24.9119ZM48.2642 24L41.9006 0.727272H44.7642L49.6278 19.6818H49.8551L54.8097 0.727272H57.9915L62.946 19.6818H63.1733L68.0369 0.727272H70.9006L64.5369 24H61.6278L56.4915 5.45454H56.3097L51.1733 24H48.2642ZM87.1392 6.54545C87.0028 5.39394 86.4498 4.5 85.4801 3.86364C84.5104 3.22727 83.321 2.90909 81.9119 2.90909C80.8816 2.90909 79.9801 3.07576 79.2074 3.40909C78.4422 3.74242 77.8438 4.20076 77.4119 4.78409C76.9877 5.36742 76.7756 6.0303 76.7756 6.77273C76.7756 7.39394 76.9233 7.92803 77.2188 8.375C77.5218 8.81439 77.9081 9.18182 78.3778 9.47727C78.8475 9.76515 79.34 10.0038 79.8551 10.1932C80.3703 10.375 80.8438 10.5227 81.2756 10.6364L83.6392 11.2727C84.2453 11.4318 84.9195 11.6515 85.6619 11.9318C86.4119 12.2121 87.1278 12.5947 87.8097 13.0795C88.4991 13.5568 89.0672 14.1705 89.5142 14.9205C89.9612 15.6705 90.1847 16.5909 90.1847 17.6818C90.1847 18.9394 89.8551 20.0758 89.196 21.0909C88.5445 22.1061 87.59 22.9129 86.3324 23.5114C85.0824 24.1098 83.5634 24.4091 81.7756 24.4091C80.1089 24.4091 78.6657 24.1402 77.446 23.6023C76.2339 23.0644 75.2794 22.3144 74.5824 21.3523C73.893 20.3902 73.5028 19.2727 73.4119 18H76.321C76.3968 18.8788 76.6922 19.6061 77.2074 20.1818C77.7301 20.75 78.3892 21.1742 79.1847 21.4545C79.9877 21.7273 80.8513 21.8636 81.7756 21.8636C82.8513 21.8636 83.8172 21.6894 84.6733 21.3409C85.5294 20.9848 86.2074 20.4924 86.7074 19.8636C87.2074 19.2273 87.4574 18.4848 87.4574 17.6364C87.4574 16.8636 87.2415 16.2348 86.8097 15.75C86.3778 15.2652 85.8097 14.8712 85.1051 14.5682C84.4006 14.2652 83.6392 14 82.821 13.7727L79.9574 12.9545C78.1392 12.4318 76.6998 11.6856 75.6392 10.7159C74.5786 9.74621 74.0483 8.47727 74.0483 6.90909C74.0483 5.60606 74.4006 4.4697 75.1051 3.5C75.8172 2.52273 76.7718 1.76515 77.9688 1.22727C79.1733 0.681817 80.518 0.40909 82.0028 0.40909C83.5028 0.40909 84.8362 0.678029 86.0028 1.21591C87.1695 1.74621 88.0938 2.47348 88.7756 3.39773C89.465 4.32197 89.8286 5.37121 89.8665 6.54545H87.1392Z" fill="white"/>
</svg>
